<svg width="62" height="62" viewBox="0 0 62 62" fill="none" xmlns="http://www.w3.org/2000/svg">
<path d="M22.8099 24.4678H8L12.6112 59.4696C12.6671 59.9034 13.0464 60.228 13.4934 60.228H32.1205C32.5675 60.228 32.9469 59.9034 33.0027 59.4696L37.6139 24.4678H22.804H22.8099Z" fill="url(#paint0_linear_4605_15391)" fill-opacity="0.5"/>
<path d="M15.2645 59.1832L25.4026 1.00012L27.557 1.38262L17.5451 59.6692L15.2645 59.1832Z" fill="#F98083"/>
<path d="M37.0568 22.7914H8.55713C8.24944 22.7914 8 23.0437 8 23.355V23.904C8 24.2153 8.24944 24.4676 8.55713 24.4676H37.0568C37.3645 24.4676 37.6139 24.2153 37.6139 23.904V23.355C37.6139 23.0437 37.3645 22.7914 37.0568 22.7914Z" fill="url(#paint1_linear_4605_15391)"/>
<path d="M28.3887 9.28899C27.7557 8.97809 27.0623 8.82263 26.3602 8.82263H18.6921C17.9901 8.82263 17.2966 8.97809 16.6636 9.28899C14.169 10.515 8.17269 14.2987 8.57839 22.2327H36.4768C36.8825 14.2987 30.8862 10.515 28.3916 9.28899H28.3887Z" fill="url(#paint2_radial_4605_15391)"/>
<path d="M9.11853 32.849H36.4974L33.01 59.4872C32.954 59.9096 32.5891 60.2279 32.1535 60.2279H13.4624C13.0269 60.2279 12.6619 59.9096 12.606 59.4872L9.11853 32.849Z" fill="url(#paint3_linear_4605_15391)"/>
<path d="M48.6089 17.8547C48.6089 18.1309 48.3851 18.3547 48.1089 18.3547H43.2368C42.9607 18.3547 42.7368 18.1309 42.7368 17.8547V11.0253C42.7368 10.7491 42.513 10.5253 42.2368 10.5253H39.0609C38.6381 10.5253 38.4062 10.0331 38.6753 9.70701L45.2872 1.69507C45.4872 1.45274 45.8585 1.45274 46.0585 1.69507L52.6705 9.70701C52.9396 10.0331 52.7076 10.5253 52.2848 10.5253H49.1089C48.8328 10.5253 48.6089 10.7491 48.6089 11.0253V17.8547Z" fill="url(#paint4_linear_4605_15391)"/>
<defs>
<linearGradient id="paint0_linear_4605_15391" x1="8" y1="42.3479" x2="37.6139" y2="42.3479" gradientUnits="userSpaceOnUse">
<stop stop-color="#D9D9D9" stop-opacity="0"/>
<stop offset="1" stop-color="#D9D9D9"/>
</linearGradient>
<linearGradient id="paint1_linear_4605_15391" x1="8" y1="23.6295" x2="37.6139" y2="23.6295" gradientUnits="userSpaceOnUse">
<stop stop-color="#D9D9D9"/>
<stop offset="1" stop-color="#D9D9D9"/>
</linearGradient>
<radialGradient id="paint2_radial_4605_15391" cx="0" cy="0" r="1" gradientUnits="userSpaceOnUse" gradientTransform="translate(22.5708 22.2063) rotate(-90) scale(17.5985 36.6636)">
<stop offset="0.275617" stop-color="#D9D9D9" stop-opacity="0"/>
<stop offset="1" stop-color="#D9D9D9"/>
</radialGradient>
<linearGradient id="paint3_linear_4605_15391" x1="36.4974" y1="46.5385" x2="9.11853" y2="46.5384" gradientUnits="userSpaceOnUse">
<stop stop-color="#3A1800"/>
<stop offset="1" stop-color="#743102"/>
</linearGradient>
<linearGradient id="paint4_linear_4605_15391" x1="45.6729" y1="1.22778" x2="45.6729" y2="44.8215" gradientUnits="userSpaceOnUse">
<stop stop-color="#FF2626"/>
<stop offset="1" stop-color="#991717"/>
</linearGradient>
</defs>
</svg>
