<svg width="62" height="62" viewBox="0 0 62 62" fill="none" xmlns="http://www.w3.org/2000/svg">
<path d="M54.0671 25.258C54.0671 25.2585 54.0666 25.2589 54.0661 25.2589C50.437 25.066 47.3388 27.8521 47.1458 31.4812C46.953 35.11 49.7381 38.2082 53.3669 38.4014C53.367 38.4014 53.3671 38.4014 53.3672 38.4013C53.3675 38.401 53.3681 38.4013 53.368 38.4017L52.9639 45.9991C52.9217 46.793 52.2439 47.4023 51.4501 47.3601L8.32647 45.0665C7.53259 45.0243 6.92326 44.3465 6.96549 43.5526L7.29313 37.3924C7.33535 36.5985 8.02013 36.0059 8.80434 35.8755C11.7821 35.3803 14.1229 32.8719 14.2899 29.7327C14.4767 26.217 11.8683 23.1996 8.40553 22.8391C8.21804 22.8243 8.07655 22.6627 8.08654 22.4749L8.47268 15.2148C8.5149 14.4209 9.1927 13.8116 9.98657 13.8538L53.1102 16.1474C53.904 16.1896 54.5134 16.8674 54.4711 17.6613L54.0671 25.258Z" fill="#4C52B0"/>
<path d="M55.1111 23.905C55.1111 24.7 54.4588 25.3282 53.6826 25.5C50.7354 26.1524 48.5313 28.7811 48.5311 31.9246C48.5311 35.4452 51.2955 38.3205 54.7723 38.4968C54.9608 38.5017 55.1111 38.656 55.1111 38.8446V46.114C55.1111 46.909 54.4667 47.5535 53.6717 47.5535H10.4881C9.69312 47.5535 9.04865 46.909 9.04865 46.114V39.945C9.04865 39.1501 9.70099 38.5219 10.4772 38.35C13.4244 37.6974 15.6287 35.0682 15.6287 31.9246C15.6285 28.7811 13.4243 26.1525 10.4772 25.5C9.70099 25.3282 9.04865 24.7 9.04865 23.9051V17.7361C9.04865 16.9411 9.69312 16.2966 10.4881 16.2966H53.6717C54.4667 16.2966 55.1111 16.9411 55.1111 17.7361V23.905Z" fill="url(#paint0_linear_4605_15401)"/>
<path d="M17.2264 23.2627C17.2264 22.8087 17.3188 22.4129 17.5035 22.0751C17.6882 21.732 17.9442 21.4681 18.2715 21.2834C18.5987 21.0934 18.9734 20.9984 19.3957 20.9984C19.9393 20.9984 20.388 21.1356 20.7416 21.4101C21.1005 21.6792 21.3407 22.0593 21.4621 22.5501H20.2666C20.2032 22.3601 20.095 22.2123 19.942 22.1068C19.7942 21.9959 19.6095 21.9405 19.3878 21.9405C19.0711 21.9405 18.8204 22.0566 18.6357 22.2889C18.4509 22.5158 18.3586 22.8404 18.3586 23.2627C18.3586 23.6796 18.4509 24.0042 18.6357 24.2365C18.8204 24.4634 19.0711 24.5769 19.3878 24.5769C19.8364 24.5769 20.1293 24.3763 20.2666 23.9752H21.4621C21.3407 24.4502 21.1005 24.8276 20.7416 25.1073C20.3827 25.3871 19.9341 25.5269 19.3957 25.5269C18.9734 25.5269 18.5987 25.4346 18.2715 25.2498C17.9442 25.0598 17.6882 24.7959 17.5035 24.4581C17.3188 24.1151 17.2264 23.7166 17.2264 23.2627ZM24.2216 25.5269C23.7994 25.5269 23.4194 25.4346 23.0816 25.2498C22.7438 25.0598 22.4773 24.7933 22.282 24.4502C22.092 24.1071 21.9969 23.7113 21.9969 23.2627C21.9969 22.814 22.0946 22.4182 22.2899 22.0751C22.4904 21.732 22.7623 21.4681 23.1053 21.2834C23.4484 21.0934 23.8311 20.9984 24.2533 20.9984C24.6756 20.9984 25.0582 21.0934 25.4013 21.2834C25.7444 21.4681 26.0135 21.732 26.2088 22.0751C26.4094 22.4182 26.5097 22.814 26.5097 23.2627C26.5097 23.7113 26.4068 24.1071 26.2009 24.4502C26.0004 24.7933 25.7259 25.0598 25.3775 25.2498C25.0345 25.4346 24.6492 25.5269 24.2216 25.5269ZM24.2216 24.5611C24.4222 24.5611 24.6096 24.5136 24.7838 24.4186C24.9632 24.3183 25.1057 24.1705 25.2113 23.9752C25.3168 23.7799 25.3696 23.5424 25.3696 23.2627C25.3696 22.8457 25.2588 22.5264 25.0371 22.3047C24.8207 22.0777 24.5542 21.9643 24.2375 21.9643C23.9208 21.9643 23.6543 22.0777 23.4379 22.3047C23.2267 22.5264 23.1212 22.8457 23.1212 23.2627C23.1212 23.6796 23.2241 24.0016 23.4299 24.2285C23.6411 24.4502 23.905 24.5611 24.2216 24.5611ZM31.4634 21.0696V25.4557H30.3471V24.9015C30.2046 25.0915 30.0172 25.2419 29.7849 25.3528C29.558 25.4583 29.3099 25.5111 29.0407 25.5111C28.6977 25.5111 28.3942 25.4399 28.1303 25.2973C27.8664 25.1496 27.6579 24.9358 27.5048 24.6561C27.357 24.371 27.2831 24.0333 27.2831 23.6427V21.0696H28.3915V23.4843C28.3915 23.8327 28.4786 24.1019 28.6528 24.2919C28.827 24.4766 29.0645 24.569 29.3653 24.569C29.6715 24.569 29.9116 24.4766 30.0858 24.2919C30.26 24.1019 30.3471 23.8327 30.3471 23.4843V21.0696H31.4634ZM33.6654 21.703C33.8079 21.5024 34.0032 21.3362 34.2512 21.2042C34.5046 21.067 34.7922 20.9984 35.1142 20.9984C35.4889 20.9984 35.8267 21.0907 36.1276 21.2755C36.4337 21.4602 36.6739 21.7241 36.848 22.0672C37.0275 22.405 37.1172 22.7982 37.1172 23.2468C37.1172 23.6955 37.0275 24.094 36.848 24.4423C36.6739 24.7854 36.4337 25.0519 36.1276 25.2419C35.8267 25.4319 35.4889 25.5269 35.1142 25.5269C34.7922 25.5269 34.5072 25.461 34.2591 25.329C34.0164 25.1971 33.8184 25.0308 33.6654 24.8302V27.5458H32.557V21.0696H33.6654V21.703ZM35.9851 23.2468C35.9851 22.9829 35.9297 22.756 35.8188 22.566C35.7133 22.3707 35.5707 22.2229 35.3913 22.1226C35.2171 22.0223 35.0271 21.9722 34.8213 21.9722C34.6207 21.9722 34.4307 22.025 34.2512 22.1305C34.0771 22.2308 33.9345 22.3786 33.8237 22.5739C33.7181 22.7692 33.6654 22.9988 33.6654 23.2627C33.6654 23.5266 33.7181 23.7562 33.8237 23.9514C33.9345 24.1467 34.0771 24.2972 34.2512 24.4027C34.4307 24.503 34.6207 24.5531 34.8213 24.5531C35.0271 24.5531 35.2171 24.5004 35.3913 24.3948C35.5707 24.2892 35.7133 24.1388 35.8188 23.9435C35.9297 23.7482 35.9851 23.516 35.9851 23.2468ZM39.8703 25.5269C39.448 25.5269 39.068 25.4346 38.7302 25.2498C38.3924 25.0598 38.1259 24.7933 37.9306 24.4502C37.7406 24.1071 37.6456 23.7113 37.6456 23.2627C37.6456 22.814 37.7432 22.4182 37.9385 22.0751C38.1391 21.732 38.4109 21.4681 38.7539 21.2834C39.097 21.0934 39.4797 20.9984 39.9019 20.9984C40.3242 20.9984 40.7068 21.0934 41.0499 21.2834C41.393 21.4681 41.6622 21.732 41.8574 22.0751C42.058 22.4182 42.1583 22.814 42.1583 23.2627C42.1583 23.7113 42.0554 24.1071 41.8495 24.4502C41.649 24.7933 41.3745 25.0598 41.0262 25.2498C40.6831 25.4346 40.2978 25.5269 39.8703 25.5269ZM39.8703 24.5611C40.0708 24.5611 40.2582 24.5136 40.4324 24.4186C40.6118 24.3183 40.7543 24.1705 40.8599 23.9752C40.9655 23.7799 41.0182 23.5424 41.0182 23.2627C41.0182 22.8457 40.9074 22.5264 40.6857 22.3047C40.4693 22.0777 40.2028 21.9643 39.8861 21.9643C39.5694 21.9643 39.3029 22.0777 39.0865 22.3047C38.8753 22.5264 38.7698 22.8457 38.7698 23.2627C38.7698 23.6796 38.8727 24.0016 39.0785 24.2285C39.2897 24.4502 39.5536 24.5611 39.8703 24.5611ZM45.4019 21.0063C45.9244 21.0063 46.3467 21.1725 46.6686 21.5051C46.9906 21.8323 47.1516 22.2915 47.1516 22.8826V25.4557H46.0432V23.0331C46.0432 22.6847 45.9561 22.4182 45.7819 22.2334C45.6077 22.0434 45.3702 21.9484 45.0694 21.9484C44.7632 21.9484 44.5204 22.0434 44.341 22.2334C44.1668 22.4182 44.0797 22.6847 44.0797 23.0331V25.4557H42.9713V21.0696H44.0797V21.6159C44.2275 21.4259 44.4149 21.2781 44.6418 21.1725C44.8741 21.0617 45.1274 21.0063 45.4019 21.0063Z" fill="#4C51B0"/>
<path d="M25.5216 33.3118C25.5216 32.4366 25.775 31.7514 26.2817 31.2562C26.7999 30.761 27.462 30.5134 28.2681 30.5134C29.0742 30.5134 29.7306 30.761 30.2373 31.2562C30.7555 31.7514 31.0146 32.4366 31.0146 33.3118C31.0146 34.1985 30.7555 34.8894 30.2373 35.3846C29.7306 35.8798 29.0742 36.1274 28.2681 36.1274C27.462 36.1274 26.7999 35.8798 26.2817 35.3846C25.775 34.8894 25.5216 34.1985 25.5216 33.3118ZM36.6113 30.7207L29.8228 42.8123H27.4736L34.2448 30.7207H36.6113ZM28.2509 31.9644C27.6175 31.9644 27.3008 32.4135 27.3008 33.3118C27.3008 34.2215 27.6175 34.6764 28.2509 34.6764C28.5618 34.6764 28.8036 34.567 28.9764 34.3482C29.1491 34.1179 29.2355 33.7724 29.2355 33.3118C29.2355 32.4135 28.9073 31.9644 28.2509 31.9644ZM33.1048 40.2039C33.1048 39.3172 33.3581 38.632 33.8648 38.1484C34.383 37.6532 35.0452 37.4056 35.8513 37.4056C36.6574 37.4056 37.308 37.6532 37.8032 38.1484C38.3099 38.632 38.5632 39.3172 38.5632 40.2039C38.5632 41.0907 38.3099 41.7816 37.8032 42.2768C37.308 42.772 36.6574 43.0195 35.8513 43.0195C35.0336 43.0195 34.3715 42.772 33.8648 42.2768C33.3581 41.7816 33.1048 41.0907 33.1048 40.2039ZM35.834 38.8566C35.1776 38.8566 34.8494 39.3057 34.8494 40.2039C34.8494 41.1137 35.1776 41.5686 35.834 41.5686C36.4789 41.5686 36.8013 41.1137 36.8013 40.2039C36.8013 39.3057 36.4789 38.8566 35.834 38.8566Z" fill="#4C51B0"/>
<defs>
<linearGradient id="paint0_linear_4605_15401" x1="1.49152" y1="31.925" x2="82.8206" y2="31.925" gradientUnits="userSpaceOnUse">
<stop stop-color="#6970F3"/>
<stop offset="1" stop-color="#F0F1FE"/>
</linearGradient>
</defs>
</svg>
