<svg width="24" height="24" viewBox="0 0 24 24" fill="none" xmlns="http://www.w3.org/2000/svg">
<path d="M3 19.83V9.66064C3 9.36113 3.07371 9.07761 3.22114 8.81008C3.36857 8.54254 3.57171 8.3222 3.83057 8.14904L10.7541 3.3779C11.1167 3.12597 11.5307 3 11.9961 3C12.4616 3 12.8781 3.12597 13.2459 3.3779L20.1694 8.14787C20.4291 8.32103 20.6323 8.54176 20.7789 8.81008C20.9263 9.07761 21 9.36113 21 9.66064V19.83C21 20.1436 20.8719 20.417 20.6156 20.6502C20.3593 20.8834 20.0589 21 19.7143 21H15.3634C15.0686 21 14.8217 20.9095 14.6229 20.7286C14.424 20.5468 14.3246 20.3222 14.3246 20.0547V14.4751C14.3246 14.2075 14.2251 13.9833 14.0263 13.8023C13.8266 13.6206 13.5797 13.5297 13.2857 13.5297H10.7143C10.4203 13.5297 10.1739 13.6206 9.975 13.8023C9.77529 13.9833 9.67543 14.2075 9.67543 14.4751V20.0558C9.67543 20.3234 9.576 20.5476 9.37714 20.7286C9.17829 20.9095 8.93186 21 8.63786 21H4.28571C3.94114 21 3.64071 20.8834 3.38443 20.6502C3.12814 20.417 3 20.1436 3 19.83Z" stroke="#7F7F7F" stroke-width="1.5"/>
</svg>
