<svg width="196" height="64" viewBox="0 0 196 64" fill="none" xmlns="http://www.w3.org/2000/svg">
<path d="M193.243 9.33276H184.469C182.862 9.33276 181.432 10.3623 180.905 11.8964L175.457 27.7982L169.596 11.82C169.049 10.3266 167.639 9.33531 166.06 9.33531H157.117C155.129 9.33531 153.795 11.3969 154.594 13.2368L167.916 43.9394L158.842 63.1795C168.267 63.1795 176.792 57.5222 180.537 48.7813L195.771 13.2241C196.557 11.3867 195.223 9.33531 193.243 9.33531V9.33276Z" fill="#6970F3"/>
<path d="M63.2544 11.5506C60.358 10.0729 57.1011 9.33276 53.4838 9.33276C49.8665 9.33276 46.6071 10.0729 43.7132 11.5506C40.8193 13.0284 38.5406 15.1612 36.8794 17.9491C35.377 20.497 34.5728 23.4675 34.467 26.853H48.8481C48.9514 25.2153 49.39 23.9576 50.1639 23.0799C51.0588 22.0248 52.1654 21.4972 53.4838 21.4972C54.8022 21.4972 55.9113 22.0248 56.8037 23.0799C57.6986 24.0926 58.1447 25.6128 58.1447 27.6407C58.1447 29.6685 57.6986 31.2087 56.8037 32.2639C55.9088 33.2766 54.8022 33.7841 53.4838 33.7841C52.1654 33.7841 50.9933 33.2766 50.0984 32.2639C49.3497 31.3363 48.9312 30.031 48.8405 28.3533H34.4619C34.5602 31.7738 35.3644 34.7893 36.8794 37.3972C38.5406 40.1426 40.8168 42.253 43.7132 43.7307C46.6096 45.2085 49.8665 45.9486 53.4838 45.9486C57.1011 45.9486 60.3605 45.2085 63.2544 43.7307C66.1482 42.253 68.4069 40.1401 70.0227 37.3972C71.6839 34.6093 72.5132 31.3588 72.5132 27.6407C72.5132 23.9226 71.6839 20.6946 70.0227 17.9491C68.4044 15.1612 66.1482 13.0284 63.2544 11.5506Z" fill="#6970F3"/>
<path d="M103.459 11.5506C100.563 10.0729 97.3057 9.33276 93.6884 9.33276C90.071 9.33276 86.8117 10.0729 83.9178 11.5506C81.0239 13.0284 78.7451 15.1612 77.0839 17.9491C75.5815 20.497 74.7774 23.4675 74.6715 26.853H89.0527C89.156 25.2153 89.5946 23.9576 90.3685 23.0799C91.2634 22.0248 92.37 21.4972 93.6884 21.4972C95.0068 21.4972 96.1159 22.0248 97.0083 23.0799C97.9031 24.0926 98.3493 25.6128 98.3493 27.6407C98.3493 29.6685 97.9031 31.2087 97.0083 32.2639C96.1134 33.2766 95.0068 33.7841 93.6884 33.7841C92.37 33.7841 91.1978 33.2766 90.303 32.2639C89.5543 31.3363 89.1358 30.031 89.0451 28.3533H74.6665C74.7648 31.7738 75.5689 34.7893 77.0839 37.3972C78.7451 40.1426 81.0214 42.253 83.9178 43.7307C86.8142 45.2085 90.071 45.9486 93.6884 45.9486C97.3057 45.9486 100.565 45.2085 103.459 43.7307C106.353 42.253 108.611 40.1401 110.227 37.3972C111.888 34.6093 112.718 31.3588 112.718 27.6407C112.718 23.9226 111.888 20.6946 110.227 17.9491C108.609 15.1612 106.353 13.0284 103.459 11.5506Z" fill="#6970F3"/>
<path d="M147.119 11.5445C144.874 10.0708 142.353 9.33276 139.555 9.33276C137.225 9.33276 135.213 9.8165 133.517 10.7865C132.579 11.3126 131.962 11.9559 131.314 12.7139V23.214C131.327 23.1991 131.339 23.1816 131.352 23.1667C132.325 22.1144 133.326 21.5883 134.852 21.5883C136.377 21.5883 137.626 22.1144 138.602 23.1667C139.575 24.2189 140.065 25.6926 140.065 27.5876C140.065 29.4827 139.578 30.9563 138.602 32.0086C137.626 33.0608 136.377 33.5869 134.852 33.5869C133.326 33.5869 132.077 33.0608 131.101 32.0086C130.128 30.9563 129.639 29.4827 129.639 27.5876C129.639 27.3981 129.644 27.2161 129.656 27.0365C129.681 26.6276 129.701 26.2162 129.701 25.8073V9.77411H121.425C118.204 9.77411 115.59 12.3698 115.59 15.574V62.4616C123.382 62.4616 129.699 56.183 129.699 48.4382V40.5413C130.589 42.1845 131.859 43.4886 133.512 44.4586C135.208 45.3861 137.22 45.8474 139.55 45.8474C142.348 45.8474 144.869 45.1318 147.114 43.7005C149.359 42.2269 151.118 40.1199 152.39 37.3845C153.704 34.6043 154.359 31.3403 154.359 27.5926C154.359 23.8449 153.702 20.6008 152.39 17.863C151.118 15.0828 149.359 12.9782 147.114 11.547L147.119 11.5445Z" fill="#6970F3"/>
<path d="M14.1158 0H5.3938C2.41454 0 0 2.42585 0 5.41908V45.2313H19.8961C26.3541 45.2313 31.5898 39.9711 31.5898 33.4828H14.1158V0Z" fill="#6970F3"/>
</svg>
