<svg width="40" height="38" viewBox="0 0 40 38" fill="none" xmlns="http://www.w3.org/2000/svg">
<path d="M28.0756 9.44318C28.0756 9.44318 35.138 10.7635 36.5973 20.0651C36.5973 20.0651 39.3146 21.4019 39.9848 26.2145C40.1829 29.5813 38.4231 32.3738 35.7752 34.1958C33.1437 35.8 29.4326 37.7079 21.9213 37.4075C7.28161 36.8232 0.212698 31.3802 0.00469119 23.6102C-0.203315 15.8401 6.57505 10.7272 6.57505 10.7272C6.57505 10.7272 4.05916 7.92152 5.59775 4.30715C5.59775 4.30715 7.46981 1.19121 10.4644 3.20799C10.4644 3.20799 12.8978 4.70325 13.1487 8.08986C13.1487 8.08986 17.3485 6.84216 22.1524 7.77629C22.1524 7.77629 21.2775 6.08628 21.743 4.10581C21.9246 3.34002 22.443 2.67986 23.1693 2.37289C24.0443 1.9999 25.3881 1.90418 26.9564 3.41264C29.743 6.09288 28.0789 9.43658 28.0789 9.43658L28.0756 9.44318Z" fill="url(#paint0_linear_4001_20369)"/>
<path d="M34.7146 19.735C36.0617 19.6029 37.0456 20.1377 37.9074 21.1807C38.8913 22.3723 40.0171 24.3231 39.9841 26.9901C39.8983 29.9872 38.3234 32.3209 35.8537 34.2056C33.7373 35.5128 30.5017 37.1995 25.4534 37.4008C14.4324 37.8464 6.99365 34.8823 3.90327 31.9116C3.02833 31.0699 2.54958 30.0962 2.31186 29.1356C1.44021 25.6137 3.49056 21.9564 6.9012 20.9002C8.6445 20.3621 11.0217 20.2631 14.2012 21.25C21.2338 23.4319 25.0044 22.9037 26.3052 22.5737C26.5826 22.5043 26.85 22.3954 27.1042 22.2667C28.0914 21.7617 31.6308 20.0419 34.7146 19.7383V19.735Z" fill="url(#paint1_linear_4001_20369)"/>
<path d="M23.6343 18.1443C23.3141 16.002 24.5555 14.0447 26.4011 13.7707C28.2501 13.4967 30.0066 15.0085 30.3268 17.1474C30.6471 19.2896 29.4057 21.247 27.5567 21.521C25.7078 21.7949 23.9513 20.2832 23.631 18.1443H23.6343Z" fill="white"/>
<path d="M14.3042 18.5436C13.984 16.4013 15.2254 14.444 17.0711 14.17C18.92 13.896 20.6765 15.4078 20.9968 17.5467C21.317 19.6889 20.0756 21.6463 18.23 21.9203C16.381 22.1942 14.6245 20.6825 14.3042 18.5436Z" fill="white"/>
<path d="M23.5361 23.673C22.1956 23.673 21.1094 22.8214 21.1094 21.7684C21.1094 20.7155 22.1956 19.8639 23.5361 19.8639C24.8766 19.8639 25.9629 20.7155 25.9629 21.7684C25.9629 22.8214 24.8766 23.673 23.5361 23.673Z" fill="#2A170C"/>
<path d="M18.082 27.0427C18.082 28.33 20.0564 29.8979 22.4931 29.8979C24.9297 29.8979 26.9041 28.33 26.9041 27.0427C26.9041 25.7554 24.9297 25.2306 22.4931 25.2306C20.0564 25.2306 18.082 25.7521 18.082 27.0427Z" fill="#2A170C"/>
<path d="M22.4941 25.2312C23.1027 25.2312 23.6826 25.2636 24.21 25.3328C24.1806 25.8618 24.1327 26.605 24.0645 27.0789C24.0248 27.3528 23.8338 27.5809 23.5664 27.6667C23.1768 27.7922 22.5527 27.9306 21.9551 27.7986C21.7834 27.7623 21.6314 27.6667 21.5225 27.5281C21.2874 27.2285 20.8998 26.5602 20.7773 25.3328C21.305 25.2637 21.8851 25.2312 22.4941 25.2312Z" fill="white"/>
<path d="M21.3414 7.48552C21.3414 7.48552 23.2266 11.9185 22.3385 13.526C21.4503 15.1334 20.2023 13.3048 20.2023 13.3048C20.2023 13.3048 16.5044 7.61755 15.4512 7.61755C15.4512 7.61755 18.1718 7.09602 21.3381 7.48552H21.3414Z" fill="#687E07"/>
<path d="M15.9922 13.9948L19.4986 14.3809" stroke="#2E1A10" stroke-width="1.11111" stroke-miterlimit="10" stroke-linecap="round"/>
<path d="M18.234 20.9564C17.4548 20.9564 16.8242 20.326 16.8242 19.547C16.8242 18.768 17.4548 18.1376 18.234 18.1376C19.0132 18.1376 19.6439 18.768 19.6439 19.547C19.6439 20.326 19.0132 20.9564 18.234 20.9564Z" fill="#2E1A10"/>
<path d="M18.6603 20.2201C18.4259 20.2201 18.2344 20.0287 18.2344 19.7943C18.2344 19.56 18.4259 19.3685 18.6603 19.3685C18.8947 19.3685 19.0862 19.56 19.0862 19.7943C19.0862 20.0287 18.8947 20.2201 18.6603 20.2201Z" fill="white"/>
<path d="M28.3853 13.8694L24.8789 14.2556" stroke="#2E1A10" stroke-width="1.11111" stroke-miterlimit="10" stroke-linecap="round"/>
<path d="M25.5527 19.3353C25.5527 20.1143 26.1834 20.7448 26.9626 20.7448C27.7418 20.7448 28.3724 20.1143 28.3724 19.3353C28.3724 18.5564 27.7418 17.9259 26.9626 17.9259C26.1834 17.9259 25.5527 18.5564 25.5527 19.3353Z" fill="#2E1A10"/>
<path d="M27.2736 20.0124C27.0392 20.0124 26.8477 19.8209 26.8477 19.5866C26.8477 19.3522 27.0392 19.1608 27.2736 19.1608C27.508 19.1608 27.6995 19.3522 27.6995 19.5866C27.6995 19.8209 27.508 20.0124 27.2736 20.0124Z" fill="white"/>
<path d="M9.80672 8.71675C9.80672 8.71675 10.6586 6.09923 8.22852 5.12219" stroke="#687E07" stroke-width="1.11111" stroke-miterlimit="10" stroke-linecap="round"/>
<path d="M25.2862 5.56482C25.2862 5.56482 25.7022 6.92144 25.1211 8.0041" stroke="#687E07" stroke-width="1.11111" stroke-miterlimit="10" stroke-linecap="round"/>
<mask id="mask0_4001_20369" style="mask-type:luminance" maskUnits="userSpaceOnUse" x="10" y="0" width="17" height="11">
<path d="M26.5181 0.665527H10.3398V10.5679H26.5181V0.665527Z" fill="white"/>
</mask>
<g mask="url(#mask0_4001_20369)">
<path d="M26.5148 8.88242C26.5148 8.88242 26.5181 8.86922 26.5181 8.85932C26.5181 8.84281 26.5148 8.82631 26.5115 8.8098C26.4686 7.58521 25.8347 6.53886 24.9234 6.03714C24.9234 3.06973 22.0146 0.663452 18.429 0.663452C14.8433 0.663452 11.9346 3.06973 11.9346 6.04044C11.0233 6.54216 10.3894 7.58851 10.3464 8.8098C10.3464 8.82631 10.3398 8.84281 10.3398 8.85932C10.3398 8.86592 10.3398 8.87582 10.3398 8.88242C10.3398 8.90223 10.3398 8.92203 10.3398 8.94184H10.3497C10.5512 9.84955 14.0939 10.5691 18.429 10.5691C22.7641 10.5691 26.3068 9.84955 26.5082 8.94184H26.5181C26.5181 8.92203 26.5181 8.90223 26.5148 8.88242Z" fill="#F3E4D2"/>
<path d="M18.428 5.55482C14.8424 5.55482 11.9336 5.00029 11.9336 4.31372V5.95421C11.9336 6.64078 14.8424 7.19531 18.428 7.19531C22.0136 7.19531 24.9224 6.64078 24.9224 5.95421V4.31372C24.9224 5.00029 22.0136 5.55482 18.428 5.55482Z" fill="#903912"/>
</g>
<defs>
<linearGradient id="paint0_linear_4001_20369" x1="20.1351" y1="2.12203" x2="19.9767" y2="28.9674" gradientUnits="userSpaceOnUse">
<stop stop-color="#E3FD73"/>
<stop offset="1" stop-color="#9AB71A"/>
</linearGradient>
<linearGradient id="paint1_linear_4001_20369" x1="21.0489" y1="19.7152" x2="21.0489" y2="43.2234" gradientUnits="userSpaceOnUse">
<stop stop-color="#F4FFB7"/>
<stop offset="1" stop-color="#E5FF53"/>
</linearGradient>
</defs>
</svg>
